<?xml version="1.0" encoding="UTF-8"?>
<svg id="Capa_1" data-name="Capa 1" xmlns="http://www.w3.org/2000/svg" version="1.1" xmlns:xlink="http://www.w3.org/1999/xlink" viewBox="0 0 1000 1000">
  <defs>
    <style>
      .cls-1 {
        fill: url(#Degradado_sin_nombre_18-5);
      }

      .cls-1, .cls-2, .cls-3, .cls-4, .cls-5, .cls-6, .cls-7, .cls-8, .cls-9, .cls-10, .cls-11, .cls-12, .cls-13, .cls-14, .cls-15, .cls-16, .cls-17, .cls-18, .cls-19, .cls-20, .cls-21, .cls-22 {
        stroke-width: 0px;
      }

      .cls-2 {
        fill: url(#Degradado_sin_nombre_6-3);
      }

      .cls-3 {
        fill: url(#Degradado_sin_nombre_6-5);
      }

      .cls-23 {
        isolation: isolate;
      }

      .cls-4 {
        fill: url(#Degradado_sin_nombre_6-7);
      }

      .cls-24 {
        stroke-width: 2.46px;
      }

      .cls-24, .cls-25, .cls-26, .cls-27, .cls-28 {
        stroke: #000;
        stroke-miterlimit: 10;
      }

      .cls-24, .cls-25, .cls-28 {
        fill: #b9b9b9;
      }

      .cls-5 {
        fill: url(#Degradado_sin_nombre_6-2);
      }

      .cls-6 {
        fill: #fffdfd;
        opacity: .1;
      }

      .cls-29 {
        opacity: .15;
      }

      .cls-7 {
        fill: #14632f;
      }

      .cls-8 {
        fill: #177438;
      }

      .cls-25 {
        stroke-width: 8.75px;
      }

      .cls-9 {
        fill: #f4efef;
      }

      .cls-10 {
        fill: url(#Degradado_sin_nombre_18-3);
      }

      .cls-11 {
        fill: url(#Degradado_sin_nombre_18);
      }

      .cls-12 {
        fill: url(#Degradado_sin_nombre_18-4);
      }

      .cls-13 {
        fill: url(#Degradado_sin_nombre_6-4);
      }

      .cls-14 {
        fill: #156831;
      }

      .cls-15 {
        fill: url(#Degradado_sin_nombre_18-6);
      }

      .cls-16 {
        fill: #18793a;
      }

      .cls-26 {
        stroke-width: 3.93px;
      }

      .cls-26, .cls-27 {
        fill: none;
      }

      .cls-27 {
        stroke-width: 4.67px;
      }

      .cls-17 {
        fill: url(#Degradado_sin_nombre_6-6);
      }

      .cls-18 {
        fill: #23b054;
      }

      .cls-28 {
        stroke-width: 7.37px;
      }

      .cls-19 {
        fill: url(#Degradado_sin_nombre_6);
      }

      .cls-20 {
        fill: #177437;
      }

      .cls-21 {
        fill: url(#Degradado_sin_nombre_18-2);
      }

      .cls-22 {
        fill: url(#Degradado_sin_nombre_18-7);
      }
    </style>
    <linearGradient id="Degradado_sin_nombre_6" data-name="Degradado sin nombre 6" x1="498.55" y1="515.97" x2="497.84" y2="649.78" gradientUnits="userSpaceOnUse">
      <stop offset=".45" stop-color="#fff"/>
      <stop offset=".76" stop-color="#000"/>
    </linearGradient>
    <linearGradient id="Degradado_sin_nombre_18" data-name="Degradado sin nombre 18" x1="498.65" y1="532.56" x2="497.66" y2="638.07" gradientUnits="userSpaceOnUse">
      <stop offset=".08" stop-color="#b3b3b3"/>
      <stop offset="1" stop-color="#4d4d4d"/>
    </linearGradient>
    <linearGradient id="Degradado_sin_nombre_6-2" data-name="Degradado sin nombre 6" x1="498.5" y1="366.14" x2="497.9" y2="478.69" xlink:href="#Degradado_sin_nombre_6"/>
    <linearGradient id="Degradado_sin_nombre_6-3" data-name="Degradado sin nombre 6" x1="498.5" y1="366.14" x2="497.9" y2="478.69" xlink:href="#Degradado_sin_nombre_6"/>
    <linearGradient id="Degradado_sin_nombre_6-4" data-name="Degradado sin nombre 6" x1="498.5" y1="366.14" x2="497.9" y2="478.69" xlink:href="#Degradado_sin_nombre_6"/>
    <linearGradient id="Degradado_sin_nombre_6-5" data-name="Degradado sin nombre 6" x1="498.5" y1="366.14" x2="497.9" y2="478.69" xlink:href="#Degradado_sin_nombre_6"/>
    <linearGradient id="Degradado_sin_nombre_6-6" data-name="Degradado sin nombre 6" x1="498.5" y1="366.14" x2="497.9" y2="478.69" xlink:href="#Degradado_sin_nombre_6"/>
    <linearGradient id="Degradado_sin_nombre_6-7" data-name="Degradado sin nombre 6" x1="498.5" y1="366.14" x2="497.9" y2="478.69" xlink:href="#Degradado_sin_nombre_6"/>
    <linearGradient id="Degradado_sin_nombre_18-2" data-name="Degradado sin nombre 18" x1="498.58" y1="380.07" x2="497.75" y2="468.76" xlink:href="#Degradado_sin_nombre_18"/>
    <linearGradient id="Degradado_sin_nombre_18-3" data-name="Degradado sin nombre 18" x1="498.58" y1="380.07" x2="497.75" y2="468.76" xlink:href="#Degradado_sin_nombre_18"/>
    <linearGradient id="Degradado_sin_nombre_18-4" data-name="Degradado sin nombre 18" x1="498.58" y1="380.07" x2="497.75" y2="468.76" xlink:href="#Degradado_sin_nombre_18"/>
    <linearGradient id="Degradado_sin_nombre_18-5" data-name="Degradado sin nombre 18" x1="498.58" y1="380.07" x2="497.75" y2="468.76" xlink:href="#Degradado_sin_nombre_18"/>
    <linearGradient id="Degradado_sin_nombre_18-6" data-name="Degradado sin nombre 18" x1="498.58" y1="380.07" x2="497.75" y2="468.76" xlink:href="#Degradado_sin_nombre_18"/>
    <linearGradient id="Degradado_sin_nombre_18-7" data-name="Degradado sin nombre 18" x1="498.58" y1="380.07" x2="497.75" y2="468.76" xlink:href="#Degradado_sin_nombre_18"/>
  </defs>
  <g>
    <g class="cls-23">
      <polygon class="cls-7" points="655.45 730.04 631.11 719.38 626.52 662.17 650.85 672.84 655.45 730.04"/>
      <polygon class="cls-20" points="650.85 672.84 626.52 662.17 849.93 504.83 874.27 515.49 650.85 672.84"/>
      <polygon class="cls-7" points="874.27 515.49 849.93 504.83 639.37 352.55 663.7 363.22 874.27 515.49"/>
      <polygon class="cls-7" points="663.7 363.22 639.37 352.55 638.35 284.01 662.68 294.68 663.7 363.22"/>
      <polygon class="cls-18" points="662.68 294.68 977.18 518.16 655.45 730.04 650.85 672.84 874.27 515.49 663.7 363.22 662.68 294.68"/>
    </g>
    <g class="cls-23">
      <polygon class="cls-16" points="590.17 275.91 565.84 265.24 615.48 283.11 639.81 293.78 590.17 275.91"/>
      <polygon class="cls-14" points="380.96 715.45 356.63 704.78 565.84 265.24 590.17 275.91 380.96 715.45"/>
      <polygon class="cls-18" points="590.17 275.91 639.81 293.78 430.6 733.32 380.96 715.45 590.17 275.91"/>
    </g>
    <g class="cls-23">
      <polygon class="cls-7" points="361.65 723.07 337.32 712.41 18.96 493.41 43.29 504.08 361.65 723.07"/>
      <polygon class="cls-8" points="43.29 504.08 18.96 493.41 337.41 277.3 361.75 287.97 43.29 504.08"/>
      <polygon class="cls-18" points="361.75 287.97 367.28 345.06 146.31 505.33 359.5 654.61 361.65 723.07 43.29 504.08 361.75 287.97"/>
    </g>
  </g>
  <g>
    <g>
      <g>
        <path class="cls-19" d="M229.84,508.02l27.89,46.15,27.89-46.15h45.23v142.77h-45.05v-83.4l-28.99,42.11-27.16-41.93v83.22h-45.14v-142.77h45.33Z"/>
        <path class="cls-19" d="M439.54,514.62c4.43,4.4,6.65,9.73,6.65,15.96v97.62c0,6.24-2.22,11.56-6.65,15.96-4.44,4.4-9.74,6.61-15.92,6.61h-60.1c-6.24,0-11.56-2.2-15.96-6.61-4.4-4.4-6.61-9.73-6.61-15.96v-97.62c0-6.24,2.2-11.56,6.61-15.96,4.4-4.4,9.73-6.61,15.96-6.61h60.1c6.18,0,11.48,2.2,15.92,6.61ZM386,551.23v56.34c0,3.79,1.9,5.69,5.69,5.69h3.76c3.73,0,5.6-1.9,5.6-5.69v-56.34c0-3.79-1.87-5.69-5.6-5.69h-3.76c-3.79,0-5.69,1.9-5.69,5.69Z"/>
        <path class="cls-19" d="M538.95,508.02c6.18,0,11.48,2.2,15.92,6.61,4.43,4.4,6.65,9.73,6.65,15.96v27.07c0,5.14-1.56,9.73-4.68,13.76s-7.03,6.7-11.74,7.98c4.71,1.35,8.62,4.01,11.74,7.98,3.12,3.98,4.68,8.53,4.68,13.67v29.45c0,4.47.43,8.37,1.29,11.7.86,3.33,2.94,6.19,6.24,8.58h-40c-8.44-4.1-12.66-10.86-12.66-20.28v-26.7c0-3.73-1.87-5.6-5.6-5.6h-9.45v52.57h-45.05v-142.77h82.67ZM501.33,545.55v15.05h9.45c3.73,0,5.6-1.87,5.6-5.6v-3.76c0-3.79-1.87-5.69-5.6-5.69h-9.45Z"/>
        <path class="cls-19" d="M596.66,508.02h82.67v37.53h-54.5c-3.73,0-5.6,1.9-5.6,5.69v56.34c0,3.79,1.86,5.69,5.6,5.69h9.45v-18.81h-7.62v-37.62h52.67v93.95h-82.67c-6.24,0-11.56-2.2-15.96-6.61s-6.61-9.73-6.61-15.96v-97.62c0-6.24,2.2-11.56,6.61-15.96,4.4-4.4,9.73-6.61,15.96-6.61Z"/>
        <path class="cls-19" d="M761.63,616.93h-22.02l-5.14,33.86h-45.05l27.16-142.77h68.08l27.25,142.77h-45.05l-5.23-33.86ZM745.39,579.4h10.55l-5.23-34.22-5.32,34.22Z"/>
      </g>
      <g>
        <path class="cls-25" d="M229.84,508.02l27.89,46.15,27.89-46.15h45.23v142.77h-45.05v-83.4l-28.99,42.11-27.16-41.93v83.22h-45.14v-142.77h45.33Z"/>
        <path class="cls-25" d="M439.54,514.62c4.43,4.4,6.65,9.73,6.65,15.96v97.62c0,6.24-2.22,11.56-6.65,15.96-4.44,4.4-9.74,6.61-15.92,6.61h-60.1c-6.24,0-11.56-2.2-15.96-6.61-4.4-4.4-6.61-9.73-6.61-15.96v-97.62c0-6.24,2.2-11.56,6.61-15.96,4.4-4.4,9.73-6.61,15.96-6.61h60.1c6.18,0,11.48,2.2,15.92,6.61ZM386,551.23v56.34c0,3.79,1.9,5.69,5.69,5.69h3.76c3.73,0,5.6-1.9,5.6-5.69v-56.34c0-3.79-1.87-5.69-5.6-5.69h-3.76c-3.79,0-5.69,1.9-5.69,5.69Z"/>
        <path class="cls-25" d="M538.95,508.02c6.18,0,11.48,2.2,15.92,6.61,4.43,4.4,6.65,9.73,6.65,15.96v27.07c0,5.14-1.56,9.73-4.68,13.76s-7.03,6.7-11.74,7.98c4.71,1.35,8.62,4.01,11.74,7.98,3.12,3.98,4.68,8.53,4.68,13.67v29.45c0,4.47.43,8.37,1.29,11.7.86,3.33,2.94,6.19,6.24,8.58h-40c-8.44-4.1-12.66-10.86-12.66-20.28v-26.7c0-3.73-1.87-5.6-5.6-5.6h-9.45v52.57h-45.05v-142.77h82.67ZM501.33,545.55v15.05h9.45c3.73,0,5.6-1.87,5.6-5.6v-3.76c0-3.79-1.87-5.69-5.6-5.69h-9.45Z"/>
        <path class="cls-25" d="M596.66,508.02h82.67v37.53h-54.5c-3.73,0-5.6,1.9-5.6,5.69v56.34c0,3.79,1.86,5.69,5.6,5.69h9.45v-18.81h-7.62v-37.62h52.67v93.95h-82.67c-6.24,0-11.56-2.2-15.96-6.61s-6.61-9.73-6.61-15.96v-97.62c0-6.24,2.2-11.56,6.61-15.96,4.4-4.4,9.73-6.61,15.96-6.61Z"/>
        <path class="cls-25" d="M761.63,616.93h-22.02l-5.14,33.86h-45.05l27.16-142.77h68.08l27.25,142.77h-45.05l-5.23-33.86ZM745.39,579.4h10.55l-5.23-34.22-5.32,34.22Z"/>
      </g>
      <g>
        <path class="cls-27" d="M229.84,508.02l27.89,46.15,27.89-46.15h45.23v142.77h-45.05v-83.4l-28.99,42.11-27.16-41.93v83.22h-45.14v-142.77h45.33Z"/>
        <path class="cls-27" d="M439.54,514.62c4.43,4.4,6.65,9.73,6.65,15.96v97.62c0,6.24-2.22,11.56-6.65,15.96-4.44,4.4-9.74,6.61-15.92,6.61h-60.1c-6.24,0-11.56-2.2-15.96-6.61-4.4-4.4-6.61-9.73-6.61-15.96v-97.62c0-6.24,2.2-11.56,6.61-15.96,4.4-4.4,9.73-6.61,15.96-6.61h60.1c6.18,0,11.48,2.2,15.92,6.61ZM386,551.23v56.34c0,3.79,1.9,5.69,5.69,5.69h3.76c3.73,0,5.6-1.9,5.6-5.69v-56.34c0-3.79-1.87-5.69-5.6-5.69h-3.76c-3.79,0-5.69,1.9-5.69,5.69Z"/>
        <path class="cls-27" d="M538.95,508.02c6.18,0,11.48,2.2,15.92,6.61,4.43,4.4,6.65,9.73,6.65,15.96v27.07c0,5.14-1.56,9.73-4.68,13.76s-7.03,6.7-11.74,7.98c4.71,1.35,8.62,4.01,11.74,7.98,3.12,3.98,4.68,8.53,4.68,13.67v29.45c0,4.47.43,8.37,1.29,11.7.86,3.33,2.94,6.19,6.24,8.58h-40c-8.44-4.1-12.66-10.86-12.66-20.28v-26.7c0-3.73-1.87-5.6-5.6-5.6h-9.45v52.57h-45.05v-142.77h82.67ZM501.33,545.55v15.05h9.45c3.73,0,5.6-1.87,5.6-5.6v-3.76c0-3.79-1.87-5.69-5.6-5.69h-9.45Z"/>
        <path class="cls-27" d="M596.66,508.02h82.67v37.53h-54.5c-3.73,0-5.6,1.9-5.6,5.69v56.34c0,3.79,1.86,5.69,5.6,5.69h9.45v-18.81h-7.62v-37.62h52.67v93.95h-82.67c-6.24,0-11.56-2.2-15.96-6.61s-6.61-9.73-6.61-15.96v-97.62c0-6.24,2.2-11.56,6.61-15.96,4.4-4.4,9.73-6.61,15.96-6.61Z"/>
        <path class="cls-27" d="M761.63,616.93h-22.02l-5.14,33.86h-45.05l27.16-142.77h68.08l27.25,142.77h-45.05l-5.23-33.86ZM745.39,579.4h10.55l-5.23-34.22-5.32,34.22Z"/>
      </g>
      <g>
        <path class="cls-11" d="M229.84,508.02l27.89,46.15,27.89-46.15h45.23v142.77h-45.05v-83.4l-28.99,42.11-27.16-41.93v83.22h-45.14v-142.77h45.33Z"/>
        <path class="cls-11" d="M439.54,514.62c4.43,4.4,6.65,9.73,6.65,15.96v97.62c0,6.24-2.22,11.56-6.65,15.96-4.44,4.4-9.74,6.61-15.92,6.61h-60.1c-6.24,0-11.56-2.2-15.96-6.61-4.4-4.4-6.61-9.73-6.61-15.96v-97.62c0-6.24,2.2-11.56,6.61-15.96,4.4-4.4,9.73-6.61,15.96-6.61h60.1c6.18,0,11.48,2.2,15.92,6.61ZM386,551.23v56.34c0,3.79,1.9,5.69,5.69,5.69h3.76c3.73,0,5.6-1.9,5.6-5.69v-56.34c0-3.79-1.87-5.69-5.6-5.69h-3.76c-3.79,0-5.69,1.9-5.69,5.69Z"/>
        <path class="cls-11" d="M538.95,508.02c6.18,0,11.48,2.2,15.92,6.61,4.43,4.4,6.65,9.73,6.65,15.96v27.07c0,5.14-1.56,9.73-4.68,13.76s-7.03,6.7-11.74,7.98c4.71,1.35,8.62,4.01,11.74,7.98,3.12,3.98,4.68,8.53,4.68,13.67v29.45c0,4.47.43,8.37,1.29,11.7.86,3.33,2.94,6.19,6.24,8.58h-40c-8.44-4.1-12.66-10.86-12.66-20.28v-26.7c0-3.73-1.87-5.6-5.6-5.6h-9.45v52.57h-45.05v-142.77h82.67ZM501.33,545.55v15.05h9.45c3.73,0,5.6-1.87,5.6-5.6v-3.76c0-3.79-1.87-5.69-5.6-5.69h-9.45Z"/>
        <path class="cls-11" d="M596.66,508.02h82.67v37.53h-54.5c-3.73,0-5.6,1.9-5.6,5.69v56.34c0,3.79,1.86,5.69,5.6,5.69h9.45v-18.81h-7.62v-37.62h52.67v93.95h-82.67c-6.24,0-11.56-2.2-15.96-6.61s-6.61-9.73-6.61-15.96v-97.62c0-6.24,2.2-11.56,6.61-15.96,4.4-4.4,9.73-6.61,15.96-6.61Z"/>
        <path class="cls-11" d="M761.63,616.93h-22.02l-5.14,33.86h-45.05l27.16-142.77h68.08l27.25,142.77h-45.05l-5.23-33.86ZM745.39,579.4h10.55l-5.23-34.22-5.32,34.22Z"/>
      </g>
    </g>
    <g class="cls-29">
      <path class="cls-9" d="M230.34,509.15l28.07,42.42,28.07-42.42h45.52v131.24h-45.34v-76.67l-29.18,38.71-27.33-38.54v76.5h-45.43v-131.24h45.62Z"/>
      <path class="cls-9" d="M441.39,515.23c4.46,4.05,6.7,8.94,6.7,14.68v89.74c0,5.74-2.23,10.63-6.7,14.68-4.46,4.05-9.8,6.07-16.02,6.07h-60.48c-6.28,0-11.64-2.02-16.07-6.07-4.43-4.05-6.65-8.94-6.65-14.68v-89.74c0-5.74,2.22-10.63,6.65-14.68,4.43-4.05,9.79-6.07,16.07-6.07h60.48c6.22,0,11.56,2.02,16.02,6.07ZM387.5,548.88v51.79c0,3.49-.75,13.19,3.06,13.19l8.75-.58c3.75,0,3.33-9.12,3.33-12.61v-51.79c0-3.49-1.88-5.23-5.63-5.23h-3.79c-3.82,0-5.73,1.74-5.73,5.23Z"/>
      <path class="cls-9" d="M541.44,509.15c6.22,0,11.56,2.02,16.02,6.07,4.46,4.05,6.7,8.94,6.7,14.68v24.88c0,4.72-1.57,8.94-4.71,12.65-3.14,3.71-7.08,6.16-11.82,7.34,4.74,1.24-.89,3.33,2.25,6.99,3.14,3.66,11.09,8.7,11.09,13.42l1.17,27.43c0,4.11.3,6.86,1.17,9.92.86,3.07-2.16,5.39,1.17,7.59l-33,.27c-8.5-3.77-12.74-9.98-12.74-18.64v-24.54c0-3.43-1.88-5.14-5.63-5.14h-9.51v48.33h-45.34v-131.24h83.2ZM503.58,543.65v13.83h9.51c3.75,0,5.63-1.71,5.63-5.14v-3.46c0-3.49-1.88-5.23-5.63-5.23h-9.51Z"/>
      <path class="cls-9" d="M597.19,509.74h83.2v34.5h-54.85c-3.76,0-5.63,1.74-5.63,5.23v51.79c0,3.49-.25,11.44,3.5,11.44h10.5l1.14-23.5h-7.66v-34.58h53.01v86.37h-83.2c-6.28,0-11.64-2.02-16.07-6.07-4.43-4.05-6.65-8.94-6.65-14.68v-89.74c0-5.74,2.22-10.63,6.65-14.68,4.43-4.05,9.79-6.07,16.07-6.07Z"/>
      <path class="cls-9" d="M765.56,609.27h-22.16l-5.17,31.12h-45.34l27.33-131.24,65.43.83,24.51,130.13-39.33.27-5.26-31.12ZM749.21,574.77h10.62l-5.26-31.46-5.36,31.46Z"/>
    </g>
  </g>
  <g>
    <g>
      <g>
        <path class="cls-5" d="M256.96,359.45h66.51v31.6h-42.72c-3.19,0-4.79,1.6-4.79,4.79v47.43c0,3.19,1.6,4.79,4.79,4.79h42.72v31.6h-66.51c-5.25,0-9.72-1.85-13.4-5.56-3.68-3.71-5.52-8.19-5.52-13.44v-82.19c0-5.25,1.84-9.73,5.52-13.44,3.68-3.71,8.15-5.56,13.4-5.56Z"/>
        <path class="cls-2" d="M414.98,365.01c3.73,3.71,5.6,8.19,5.6,13.44v82.19c0,5.25-1.87,9.73-5.6,13.44-3.73,3.71-8.2,5.56-13.4,5.56h-50.6c-5.25,0-9.73-1.85-13.44-5.56s-5.56-8.19-5.56-13.44v-82.19c0-5.25,1.85-9.73,5.56-13.44s8.19-5.56,13.44-5.56h50.6c5.2,0,9.67,1.85,13.4,5.56ZM369.9,395.84v47.43c0,3.19,1.6,4.79,4.79,4.79h3.17c3.14,0,4.71-1.6,4.71-4.79v-47.43c0-3.19-1.57-4.79-4.71-4.79h-3.17c-3.19,0-4.79,1.6-4.79,4.79Z"/>
        <path class="cls-13" d="M498.68,359.45c5.2,0,9.67,1.85,13.4,5.56s5.6,8.19,5.6,13.44v82.19c0,5.25-1.87,9.73-5.6,13.44s-8.2,5.56-13.4,5.56h-69.6v-120.2h69.6ZM467.08,391.05v57.01h7.88c3.14,0,4.71-1.6,4.71-4.79v-47.43c0-3.19-1.57-4.79-4.71-4.79h-7.88Z"/>
        <path class="cls-3" d="M526.18,359.45h38.01v120.2h-38.01v-120.2Z"/>
        <path class="cls-17" d="M591.69,359.45h69.6v31.6h-45.89c-3.14,0-4.71,1.6-4.71,4.79v47.43c0,3.19,1.57,4.79,4.71,4.79h7.96v-15.84h-6.41v-31.67h44.34v79.1h-69.6c-5.25,0-9.73-1.85-13.44-5.56-3.71-3.71-5.56-8.19-5.56-13.44v-82.19c0-5.25,1.85-9.73,5.56-13.44,3.71-3.71,8.19-5.56,13.44-5.56Z"/>
        <path class="cls-4" d="M752.79,365.01c3.73,3.71,5.6,8.19,5.6,13.44v82.19c0,5.25-1.87,9.73-5.6,13.44-3.73,3.71-8.2,5.56-13.4,5.56h-50.6c-5.25,0-9.73-1.85-13.44-5.56s-5.56-8.19-5.56-13.44v-82.19c0-5.25,1.85-9.73,5.56-13.44s8.19-5.56,13.44-5.56h50.6c5.2,0,9.67,1.85,13.4,5.56ZM707.71,395.84v47.43c0,3.19,1.6,4.79,4.79,4.79h3.17c3.14,0,4.71-1.6,4.71-4.79v-47.43c0-3.19-1.57-4.79-4.71-4.79h-3.17c-3.19,0-4.79,1.6-4.79,4.79Z"/>
      </g>
      <g>
        <path class="cls-28" d="M256.96,359.45h66.51v31.6h-42.72c-3.19,0-4.79,1.6-4.79,4.79v47.43c0,3.19,1.6,4.79,4.79,4.79h42.72v31.6h-66.51c-5.25,0-9.72-1.85-13.4-5.56-3.68-3.71-5.52-8.19-5.52-13.44v-82.19c0-5.25,1.84-9.73,5.52-13.44,3.68-3.71,8.15-5.56,13.4-5.56Z"/>
        <path class="cls-28" d="M414.98,365.01c3.73,3.71,5.6,8.19,5.6,13.44v82.19c0,5.25-1.87,9.73-5.6,13.44-3.73,3.71-8.2,5.56-13.4,5.56h-50.6c-5.25,0-9.73-1.85-13.44-5.56s-5.56-8.19-5.56-13.44v-82.19c0-5.25,1.85-9.73,5.56-13.44s8.19-5.56,13.44-5.56h50.6c5.2,0,9.67,1.85,13.4,5.56ZM369.9,395.84v47.43c0,3.19,1.6,4.79,4.79,4.79h3.17c3.14,0,4.71-1.6,4.71-4.79v-47.43c0-3.19-1.57-4.79-4.71-4.79h-3.17c-3.19,0-4.79,1.6-4.79,4.79Z"/>
        <path class="cls-28" d="M498.68,359.45c5.2,0,9.67,1.85,13.4,5.56s5.6,8.19,5.6,13.44v82.19c0,5.25-1.87,9.73-5.6,13.44s-8.2,5.56-13.4,5.56h-69.6v-120.2h69.6ZM467.08,391.05v57.01h7.88c3.14,0,4.71-1.6,4.71-4.79v-47.43c0-3.19-1.57-4.79-4.71-4.79h-7.88Z"/>
        <path class="cls-28" d="M526.18,359.45h38.01v120.2h-38.01v-120.2Z"/>
        <path class="cls-28" d="M591.69,359.45h69.6v31.6h-45.89c-3.14,0-4.71,1.6-4.71,4.79v47.43c0,3.19,1.57,4.79,4.71,4.79h7.96v-15.84h-6.41v-31.67h44.34v79.1h-69.6c-5.25,0-9.73-1.85-13.44-5.56-3.71-3.71-5.56-8.19-5.56-13.44v-82.19c0-5.25,1.85-9.73,5.56-13.44,3.71-3.71,8.19-5.56,13.44-5.56Z"/>
        <path class="cls-28" d="M752.79,365.01c3.73,3.71,5.6,8.19,5.6,13.44v82.19c0,5.25-1.87,9.73-5.6,13.44-3.73,3.71-8.2,5.56-13.4,5.56h-50.6c-5.25,0-9.73-1.85-13.44-5.56s-5.56-8.19-5.56-13.44v-82.19c0-5.25,1.85-9.73,5.56-13.44s8.19-5.56,13.44-5.56h50.6c5.2,0,9.67,1.85,13.4,5.56ZM707.71,395.84v47.43c0,3.19,1.6,4.79,4.79,4.79h3.17c3.14,0,4.71-1.6,4.71-4.79v-47.43c0-3.19-1.57-4.79-4.71-4.79h-3.17c-3.19,0-4.79,1.6-4.79,4.79Z"/>
      </g>
      <g>
        <path class="cls-26" d="M256.96,359.45h66.51v31.6h-42.72c-3.19,0-4.79,1.6-4.79,4.79v47.43c0,3.19,1.6,4.79,4.79,4.79h42.72v31.6h-66.51c-5.25,0-9.72-1.85-13.4-5.56-3.68-3.71-5.52-8.19-5.52-13.44v-82.19c0-5.25,1.84-9.73,5.52-13.44,3.68-3.71,8.15-5.56,13.4-5.56Z"/>
        <path class="cls-26" d="M414.98,365.01c3.73,3.71,5.6,8.19,5.6,13.44v82.19c0,5.25-1.87,9.73-5.6,13.44-3.73,3.71-8.2,5.56-13.4,5.56h-50.6c-5.25,0-9.73-1.85-13.44-5.56s-5.56-8.19-5.56-13.44v-82.19c0-5.25,1.85-9.73,5.56-13.44s8.19-5.56,13.44-5.56h50.6c5.2,0,9.67,1.85,13.4,5.56ZM369.9,395.84v47.43c0,3.19,1.6,4.79,4.79,4.79h3.17c3.14,0,4.71-1.6,4.71-4.79v-47.43c0-3.19-1.57-4.79-4.71-4.79h-3.17c-3.19,0-4.79,1.6-4.79,4.79Z"/>
        <path class="cls-26" d="M498.68,359.45c5.2,0,9.67,1.85,13.4,5.56s5.6,8.19,5.6,13.44v82.19c0,5.25-1.87,9.73-5.6,13.44s-8.2,5.56-13.4,5.56h-69.6v-120.2h69.6ZM467.08,391.05v57.01h7.88c3.14,0,4.71-1.6,4.71-4.79v-47.43c0-3.19-1.57-4.79-4.71-4.79h-7.88Z"/>
        <path class="cls-26" d="M526.18,359.45h38.01v120.2h-38.01v-120.2Z"/>
        <path class="cls-26" d="M591.69,359.45h69.6v31.6h-45.89c-3.14,0-4.71,1.6-4.71,4.79v47.43c0,3.19,1.57,4.79,4.71,4.79h7.96v-15.84h-6.41v-31.67h44.34v79.1h-69.6c-5.25,0-9.73-1.85-13.44-5.56-3.71-3.71-5.56-8.19-5.56-13.44v-82.19c0-5.25,1.85-9.73,5.56-13.44,3.71-3.71,8.19-5.56,13.44-5.56Z"/>
        <path class="cls-26" d="M752.79,365.01c3.73,3.71,5.6,8.19,5.6,13.44v82.19c0,5.25-1.87,9.73-5.6,13.44-3.73,3.71-8.2,5.56-13.4,5.56h-50.6c-5.25,0-9.73-1.85-13.44-5.56s-5.56-8.19-5.56-13.44v-82.19c0-5.25,1.85-9.73,5.56-13.44s8.19-5.56,13.44-5.56h50.6c5.2,0,9.67,1.85,13.4,5.56ZM707.71,395.84v47.43c0,3.19,1.6,4.79,4.79,4.79h3.17c3.14,0,4.71-1.6,4.71-4.79v-47.43c0-3.19-1.57-4.79-4.71-4.79h-3.17c-3.19,0-4.79,1.6-4.79,4.79Z"/>
      </g>
      <g>
        <path class="cls-21" d="M256.96,359.45h66.51v31.6h-42.72c-3.19,0-4.79,1.6-4.79,4.79v47.43c0,3.19,1.6,4.79,4.79,4.79h42.72v31.6h-66.51c-5.25,0-9.72-1.85-13.4-5.56-3.68-3.71-5.52-8.19-5.52-13.44v-82.19c0-5.25,1.84-9.73,5.52-13.44,3.68-3.71,8.15-5.56,13.4-5.56Z"/>
        <path class="cls-10" d="M414.98,365.01c3.73,3.71,5.6,8.19,5.6,13.44v82.19c0,5.25-1.87,9.73-5.6,13.44-3.73,3.71-8.2,5.56-13.4,5.56h-50.6c-5.25,0-9.73-1.85-13.44-5.56s-5.56-8.19-5.56-13.44v-82.19c0-5.25,1.85-9.73,5.56-13.44s8.19-5.56,13.44-5.56h50.6c5.2,0,9.67,1.85,13.4,5.56ZM369.9,395.84v47.43c0,3.19,1.6,4.79,4.79,4.79h3.17c3.14,0,4.71-1.6,4.71-4.79v-47.43c0-3.19-1.57-4.79-4.71-4.79h-3.17c-3.19,0-4.79,1.6-4.79,4.79Z"/>
        <path class="cls-12" d="M498.68,359.45c5.2,0,9.67,1.85,13.4,5.56s5.6,8.19,5.6,13.44v82.19c0,5.25-1.87,9.73-5.6,13.44s-8.2,5.56-13.4,5.56h-69.6v-120.2h69.6ZM467.08,391.05v57.01h7.88c3.14,0,4.71-1.6,4.71-4.79v-47.43c0-3.19-1.57-4.79-4.71-4.79h-7.88Z"/>
        <path class="cls-1" d="M526.18,359.45h38.01v120.2h-38.01v-120.2Z"/>
        <path class="cls-15" d="M591.69,359.45h69.6v31.6h-45.89c-3.14,0-4.71,1.6-4.71,4.79v47.43c0,3.19,1.57,4.79,4.71,4.79h7.96v-15.84h-6.41v-31.67h44.34v79.1h-69.6c-5.25,0-9.73-1.85-13.44-5.56-3.71-3.71-5.56-8.19-5.56-13.44v-82.19c0-5.25,1.85-9.73,5.56-13.44,3.71-3.71,8.19-5.56,13.44-5.56Z"/>
        <path class="cls-22" d="M752.79,365.01c3.73,3.71,5.6,8.19,5.6,13.44v82.19c0,5.25-1.87,9.73-5.6,13.44-3.73,3.71-8.2,5.56-13.4,5.56h-50.6c-5.25,0-9.73-1.85-13.44-5.56s-5.56-8.19-5.56-13.44v-82.19c0-5.25,1.85-9.73,5.56-13.44s8.19-5.56,13.44-5.56h50.6c5.2,0,9.67,1.85,13.4,5.56ZM707.71,395.84v47.43c0,3.19,1.6,4.79,4.79,4.79h3.17c3.14,0,4.71-1.6,4.71-4.79v-47.43c0-3.19-1.57-4.79-4.71-4.79h-3.17c-3.19,0-4.79,1.6-4.79,4.79Z"/>
      </g>
    </g>
    <g>
      <path class="cls-6" d="M258.37,364.75h66.67v27.3h-42.82c-3.2,0-4.8,1.38-4.8,4.14v40.98c0,2.76-2.25,9.43.96,9.43l45.69.49.98,21.51h-66.67c-5.27,0-9.75-1.6-13.44-4.81-3.69-3.2-5.54-7.07-5.54-11.61v-71.01c0-4.54,1.85-8.41,5.54-11.61,3.69-3.2,8.17-4.81,13.44-4.81Z"/>
      <path class="cls-6" d="M416.77,369.56c3.74,3.2,5.61,7.07,5.61,11.61v71.01c0,4.54-1.87,8.41-5.61,11.61-3.74,3.2-8.22,4.81-13.44,4.81h-50.72c-5.27,0-9.76-1.6-13.47-4.81-3.72-3.2-5.58-7.07-5.58-11.61v-71.01c0-4.54,1.86-8.41,5.58-11.61,3.72-3.2,8.21-4.81,13.47-4.81h50.72c5.21,0,9.69,1.6,13.44,4.81ZM371.58,396.19v40.98c0,2.76-2.08,10.91,1.13,10.91l7.37-.49c3.15,0,4.2-7.65,4.2-10.41v-40.98c0-2.76-1.58-4.14-4.72-4.14h-3.17c-3.2,0-4.8,1.38-4.8,4.14Z"/>
      <path class="cls-6" d="M500.67,364.75c5.21,0,9.69,1.6,13.44,4.81,3.74,3.2,5.61,7.07,5.61,11.61v71.01c0,4.54-1.87,8.41-5.61,11.61-3.74,3.2-8.22,4.81-13.44,4.81h-69.77v-103.85h69.77ZM469,392.05l-1.47,54.55h9.34c3.15,0,4.75-6.67,4.75-9.43v-40.98c0-2.76-1.58-4.14-4.72-4.14h-7.9Z"/>
      <path class="cls-6" d="M528.24,364.75h38.1v103.85h-38.1v-103.85Z"/>
      <path class="cls-6" d="M593.91,364.75h69.77v27.3h-46c-3.15,0-7.17,1.68-7.17,4.43l-.49,40.78c0,2.76,1.27,10.81,4.42,10.81l8.84-1.47,2.37-18.98h-6.43v-27.36h44.45v68.34h-69.77c-5.27,0-9.76-1.6-13.47-4.81-3.72-3.2-5.58-7.07-5.58-11.61v-71.01c0-4.54,1.86-8.41,5.58-11.61,3.72-3.2,8.21-4.81,13.47-4.81Z"/>
      <path class="cls-6" d="M755.41,369.56c3.74,3.2,5.61,7.07,5.61,11.61v71.01c0,4.54-1.87,8.41-5.61,11.61-3.74,3.2-8.22,4.81-13.44,4.81h-50.72c-5.27,0-9.76-1.6-13.47-4.81-3.72-3.2-5.58-7.07-5.58-11.61v-71.01c0-4.54,1.86-8.41,5.58-11.61,3.72-3.2,8.21-4.81,13.47-4.81h50.72c5.21,0,9.69,1.6,13.44,4.81ZM710.22,396.19l-1.94,41.57c0,2.76-.74,8.84,2.46,8.84l6.88.49c3.15,0,5.3-7.16,5.3-9.92v-40.98c0-2.76-1.58-4.14-4.72-4.14h-3.17c-3.2,0-4.8,1.38-4.8,4.14Z"/>
    </g>
  </g>
  <path class="cls-24" d="M388.32,325.48l-19.3,22.62h-9.97l13.92-22.62h15.35Z"/>
</svg>